<?xml version="1.0" encoding="UTF-8"?>
<svg width="100px" height="100px" viewBox="0 0 100 100" version="1.1" xmlns="http://www.w3.org/2000/svg" xmlns:xlink="http://www.w3.org/1999/xlink">
    <defs>
        <linearGradient x1="50%" y1="0%" x2="50%" y2="100%" id="linearGradient-1">
            <stop stop-color="#4F46E5" offset="0%"></stop>
            <stop stop-color="#3B82F6" offset="100%"></stop>
        </linearGradient>
    </defs>
    <g id="Logo" stroke="none" stroke-width="1" fill="none" fill-rule="evenodd">
        <circle id="Background" fill="url(#linearGradient-1)" cx="50" cy="50" r="50"></circle>
        <path d="M65,35 C68.3137085,35 71,37.6862915 71,41 L71,59 C71,62.3137085 68.3137085,65 65,65 L35,65 C31.6862915,65 29,62.3137085 29,59 L29,41 C29,37.6862915 31.6862915,35 35,35 L65,35 Z M65,38 L35,38 C33.3431458,38 32,39.3431458 32,41 L32,59 C32,60.6568542 33.3431458,62 35,62 L65,62 C66.6568542,62 68,60.6568542 68,59 L68,41 C68,39.3431458 66.6568542,38 65,38 Z M63,44 C64.1045695,44 65,44.8954305 65,46 C65,47.1045695 64.1045695,48 63,48 L37,48 C35.8954305,48 35,47.1045695 35,46 C35,44.8954305 35.8954305,44 37,44 L63,44 Z M45,52 C46.1045695,52 47,52.8954305 47,54 C47,55.1045695 46.1045695,56 45,56 L37,56 C35.8954305,56 35,55.1045695 35,54 C35,52.8954305 35.8954305,52 37,52 L45,52 Z" id="Card" fill="#FFFFFF" fill-rule="nonzero"></path>
    </g>
</svg> 